<?xml version="1.0" encoding="UTF-8"?><svg width="59" height="64" viewBox="0 0 59 64" version="1.1" xmlns="http://www.w3.org/2000/svg"><path d="M19 37C28.94 37 37 28.94 37 19 37 9.06 28.94 1 19 1 9.06 1 1 9.06 1 19 1 28.94 9.06 37 19 37Z" fill="#fff"/><path d="M7.44 12.24L6.71 14.8C6.49 15.57 6.95 16.2 7.74 16.2L11.94 16.22 7.75 31 10.53 31C11.29 31 12.06 30.41 12.26 29.69L16.08 16.23 17.81 16.23 15.46 24.67C15.24 25.42 15.72 26.05 16.53 26.05L19.2 26.05 23.06 12.25 7.44 12.24 7.44 12.24Z" fill="#135DFB"/><path d="M27.52 7.3C26.78 7.3 26.01 7.89 25.81 8.61L21.11 24.84C20.89 25.61 21.35 26.24 22.14 26.24L28.96 26.27C29.74 26.27 30.55 25.65 30.77 24.88L31.51 22.3 25.93 22.28 30.28 7.3 27.52 7.3Z" fill="#135DFB"/><path d="M21.79 7.3C21.05 7.3 20.28 7.89 20.08 8.61L19.55 10.41 22.3 10.41C23.05 10.41 23.82 9.82 24.02 9.1L24.55 7.3 21.79 7.3Z" fill="#135DFB"/><path d="M49.94 27.94C50.53 27.94 51.03 28.19 51.41 28.59 51.87 28.5 52.32 28.33 52.72 28.09 52.57 28.57 52.24 28.96 51.81 29.22 52.23 29.17 52.63 29.07 53 28.91 52.73 29.32 52.37 29.68 51.97 29.97 51.97 30.06 51.97 30.13 51.97 30.22 51.97 32.93 49.93 36.06 46.16 36.06 45 36.06 43.91 35.74 43 35.16 43.16 35.18 43.33 35.16 43.5 35.16 44.46 35.16 45.33 34.83 46.03 34.28 45.13 34.26 44.39 33.69 44.13 32.88 44.25 32.9 44.37 32.91 44.5 32.91 44.69 32.91 44.86 32.89 45.03 32.84 44.09 32.65 43.41 31.81 43.41 30.81L43.41 30.78C43.68 30.93 44.01 31.05 44.34 31.06 43.79 30.69 43.41 30.06 43.41 29.34 43.41 28.97 43.51 28.62 43.69 28.31 44.7 29.55 46.23 30.38 47.94 30.47 47.9 30.32 47.88 30.16 47.88 30 47.88 28.87 48.8 27.94 49.94 27.94Z" fill="#fff"/><path d="M49.19 6L50.78 6 50.78 7.75 49.19 7.75C49 7.75 48.78 7.98 48.78 8.31L48.78 9.47 50.78 9.47 50.47 11.1 48.78 11.1 48.78 16.01 46.91 16.01 46.91 11.1 45.22 11.1 45.22 9.48 46.91 9.48 46.91 8.51C46.91 7.12 47.87 6 49.19 6Z" fill="#fff"/><path d="M49.94 54.2C49.74 53.94 49.55 53.74 49.29 53.55 49.06 53.35 48.77 53.19 48.61 52.93 48.25 52.35 49.03 51.89 49.35 51.51 50.13 50.66 49.91 49.07 48.93 48.45 49.16 48.45 49.52 48.52 49.74 48.45 50 48.39 50.3 48.13 50.52 48L48.02 48C47.25 48 46.43 48.1 45.82 48.62 45.1 49.2 44.75 50.14 45.04 51.05 45.36 52.09 46.47 52.54 47.47 52.41 47.41 52.64 47.31 52.8 47.34 53.03 47.38 53.32 47.54 53.58 47.7 53.81 46.79 53.84 45.69 54 44.94 54.62 44.26 55.2 44.03 56.24 44.65 56.96 45.3 57.7 46.47 57.83 47.38 57.77 48.19 57.7 48.97 57.44 49.55 56.89 50.3 56.15 50.56 55.01 49.94 54.2 49.81 54.07 50.04 54.33 49.94 54.2ZM47.67 52.09C46.01 52.09 45.27 48.42 47.18 48.42 48.12 48.42 48.54 49.46 48.71 50.27 48.84 51.05 48.67 52.09 47.67 52.09ZM49.29 56.47C48.74 57.41 47.21 57.31 46.37 56.96 45.49 56.57 45.04 55.43 45.85 54.69 46.21 54.36 46.73 54.23 47.18 54.17 47.44 54.13 47.7 54.1 47.96 54.13 48.15 54.17 48.25 54.26 48.41 54.36 49.1 54.85 49.81 55.59 49.29 56.47 49.19 56.67 49.39 56.28 49.29 56.47L49.29 56.47ZM53.41 49.3L52.11 49.3 52.11 48 51.46 48 51.46 49.3 50.17 49.3 50.17 49.95 51.46 49.95 51.46 51.25 52.11 51.25 52.11 49.95 53.41 49.95 53.41 49.3Z" fill="#fff"/></svg>